<?xml version="1.0" standalone="no"?>
<!DOCTYPE svg PUBLIC "-//W3C//DTD SVG 20010904//EN"
 "http://www.w3.org/TR/2001/REC-SVG-20010904/DTD/svg10.dtd">
<svg version="1.0" xmlns="http://www.w3.org/2000/svg"
 width="652.000000pt" height="695.000000pt" viewBox="0 0 652.000000 695.000000"
 preserveAspectRatio="xMidYMid meet">

<g transform="translate(0.000000,695.000000) scale(0.100000,-0.100000)"
fill="#000000" stroke="none">
<path d="M3870 6880 c-139 -18 -292 -51 -410 -90 -187 -61 -429 -189 -552
-291 l-48 -40 -72 40 c-276 149 -698 192 -1041 105 -32 -8 -83 -26 -114 -39
l-55 -25 5 -407 c5 -424 17 -627 63 -1043 14 -129 26 -239 27 -245 1 -5 -88
-33 -197 -60 -110 -28 -201 -56 -204 -63 -5 -16 -22 -15 -22 2 0 7 -11 25 -25
40 -13 14 -21 26 -17 26 4 0 -2 7 -12 15 -11 8 -16 15 -10 15 5 0 2 5 -6 10
-11 7 -8 10 16 10 67 0 152 91 160 170 l4 44 -30 -29 c-30 -29 -42 -47 -17
-26 8 6 18 7 22 3 5 -4 5 -1 0 7 -5 9 -4 12 3 7 11 -7 6 -31 -11 -53 -5 -7
-13 -11 -17 -8 -5 3 -12 1 -15 -5 -4 -6 -3 -10 2 -9 25 4 25 -4 -1 -26 -16
-14 -25 -25 -20 -25 5 0 -6 -9 -24 -20 -18 -11 -40 -20 -49 -20 -23 0 -52 37
-59 77 -4 22 -10 31 -16 25 -6 -6 -6 -18 2 -31 6 -12 10 -27 7 -34 -2 -6 0
-16 4 -22 5 -5 33 -46 62 -90 47 -71 52 -84 43 -105 -6 -14 -13 -27 -17 -30
-5 -5 -14 -33 -25 -85 -3 -11 -7 -56 -10 -100 -8 -109 16 -217 74 -327 2 -3
-23 -12 -55 -18 -63 -13 -383 -99 -395 -107 -12 -7 -9 -38 4 -51 7 -7 22 -12
34 -12 21 0 21 -4 28 -187 3 -104 9 -211 12 -240 6 -51 6 -52 -22 -55 -30 -3
-45 -31 -26 -50 15 -15 2443 -418 2521 -418 16 0 48 -57 68 -120 23 -75 23
-228 1 -300 -30 -93 -11 -89 -235 -52 -279 47 -642 112 -1043 188 -190 36
-412 76 -495 89 -82 13 -196 31 -252 41 l-103 17 -1 31 c0 17 -15 117 -32 221
-30 178 -33 190 -55 193 -12 2 -24 -3 -28 -11 -8 -22 24 -411 36 -438 10 -21
31 -29 158 -62 81 -20 234 -59 340 -87 106 -27 399 -92 651 -145 252 -53 496
-104 542 -114 l84 -18 -55 -11 c-30 -6 -184 -36 -341 -67 l-286 -57 -409 125
c-225 68 -545 164 -711 213 -165 49 -299 92 -297 95 2 4 21 10 41 13 83 15
239 58 251 70 18 18 4 46 -23 46 -12 0 -60 -11 -106 -24 -46 -13 -129 -36
-184 -51 -55 -15 -106 -32 -112 -37 -22 -18 -15 -45 27 -110 53 -81 74 -153
73 -253 -1 -89 -25 -169 -74 -243 -32 -47 -35 -65 -16 -79 6 -6 172 -61 367
-123 195 -62 438 -140 540 -172 283 -90 647 -198 669 -198 47 0 2598 634 2630
654 5 3 22 41 37 83 27 71 29 89 29 208 -1 115 -4 137 -25 190 -14 33 -25 64
-25 70 0 5 41 19 90 30 l90 21 33 64 c61 121 64 265 9 431 -27 79 -31 73 71
84 75 8 91 22 126 111 57 141 54 286 -6 431 l-30 72 -52 11 c-90 20 -297 48
-441 60 -235 20 -235 21 -5 63 112 21 208 41 213 44 5 3 7 13 4 23 -3 13 10
24 52 45 62 30 157 96 210 145 21 19 41 30 52 27 10 -3 18 -2 17 2 -3 27 4 40
20 35 14 -5 14 -4 3 4 -12 9 0 27 63 97 84 91 93 98 171 126 37 13 43 18 25
19 l-25 1 28 15 c32 18 34 21 7 19 -12 -1 -41 -18 -65 -39 -25 -20 -45 -35
-45 -32 0 3 16 27 36 53 20 27 46 67 57 90 25 52 69 72 152 70 46 -2 59 -5 57
-16 -3 -12 0 -12 12 -1 28 23 17 30 -48 30 -45 0 -67 5 -76 15 -12 14 -15 14
-30 0 -9 -8 -19 -15 -22 -15 -6 0 41 130 65 178 8 15 11 37 8 49 -4 16 -14 -4
-36 -75 -24 -80 -31 -92 -37 -71 -6 20 -7 19 -4 -8 1 -18 0 -33 -4 -33 -3 0
-14 -26 -24 -57 -20 -64 -54 -126 -65 -119 -4 3 -15 -12 -24 -32 -10 -20 -31
-53 -48 -72 -30 -35 -31 -35 -25 -7 4 15 8 46 10 70 2 23 1 29 -1 12 -5 -27
-6 -28 -13 -10 -7 16 -9 11 -10 -20 -1 -32 -3 -36 -10 -20 -6 13 -7 3 -4 -30
6 -50 5 -52 -46 -113 -28 -34 -53 -62 -55 -62 -2 0 5 19 15 43 11 23 19 49 19
57 -1 13 -1 13 -6 0 -14 -40 -48 -100 -55 -100 -5 0 -6 -4 -3 -10 3 -5 4 -10
0 -10 -3 0 -10 10 -15 23 -9 19 -10 18 -7 -10 2 -18 0 -33 -5 -33 -4 0 -8 -6
-8 -13 0 -14 -35 -49 -91 -91 -31 -23 -38 -24 -43 -11 -3 9 -2 13 4 10 5 -3
14 4 20 15 7 13 7 20 0 20 -5 0 -10 -5 -10 -10 0 -18 -25 -6 -32 15 -4 13 -6
3 -7 -27 -1 -39 -5 -50 -28 -66 -35 -23 -77 -39 -124 -45 l-36 -5 -17 77 c-35
161 -38 302 -11 468 7 37 11 42 41 48 29 5 34 10 34 35 0 16 -4 31 -8 34 -7 4
-86 14 -348 42 l-51 5 -6 577 c-7 733 -32 1266 -60 1284 -28 18 -142 50 -224
64 -108 18 -402 26 -503 14z m515 -114 c66 -9 134 -18 152 -21 l32 -6 0 -562
0 -562 -27 -30 -27 -30 26 23 27 24 6 -114 c3 -62 8 -185 11 -273 3 -88 8
-184 12 -212 5 -49 4 -53 -16 -53 -12 0 -53 18 -92 40 -213 120 -402 170 -644
171 -176 0 -341 -35 -503 -107 -51 -22 -57 -23 -209 -14 -169 9 -173 11 -173
68 0 26 4 32 23 33 21 1 21 1 -3 8 -15 4 -26 15 -28 29 -3 22 -3 22 163 21 92
0 169 2 172 5 4 3 -71 6 -165 6 -95 0 -172 1 -172 3 0 1 -7 81 -15 177 -16
198 -33 538 -39 775 -3 127 -7 160 -17 160 -9 0 -15 -15 -17 -45 -5 -72 16
-598 33 -805 9 -105 16 -225 18 -268 1 -42 5 -77 10 -77 4 0 7 -17 7 -39 l0
-38 -132 -7 c-73 -4 -187 -17 -253 -30 -66 -13 -165 -27 -220 -31 -105 -7
-221 -32 -308 -66 -43 -17 -252 -69 -277 -69 -4 0 -12 64 -19 143 -6 78 -14
171 -18 207 l-6 65 29 -26 c16 -15 43 -34 59 -43 30 -17 30 -17 5 1 -63 46
-90 76 -95 106 -8 47 -22 271 -18 279 2 4 33 -15 69 -42 61 -47 124 -86 124
-77 0 2 -26 21 -57 41 -32 20 -77 53 -100 73 l-42 38 -11 190 c-13 225 -37
689 -35 692 1 2 57 14 126 29 100 21 162 27 318 31 203 6 306 -3 458 -38 99
-22 303 -87 320 -101 9 -8 48 9 135 60 68 38 155 86 193 105 186 91 488 175
714 197 113 11 346 4 496 -14z m-311 -1701 c95 -17 302 -80 311 -95 4 -6 -6
-8 -22 -5 -28 5 -358 27 -677 45 -93 5 -170 11 -173 13 -5 6 134 37 207 46
107 14 262 12 354 -4z m-1132 -97 c4 -29 28 -35 35 -9 5 18 13 21 62 20 31 0
74 -3 95 -7 l39 -7 -44 -29 c-24 -16 -73 -55 -109 -86 l-65 -58 -30 25 c-40
33 -220 120 -267 128 -21 4 -38 10 -38 14 0 15 97 28 207 30 107 1 112 0 115
-21z m727 -24 c518 -29 885 -60 921 -79 27 -14 37 -15 55 -5 16 9 44 10 96 4
41 -4 63 -10 49 -12 -287 -41 -968 -159 -1314 -228 l-230 -46 -265 22 c-146
12 -482 38 -746 59 l-480 37 45 30 c95 65 165 93 340 135 161 38 183 41 275
36 140 -7 237 -35 400 -117 77 -38 148 -70 157 -70 10 0 46 25 80 56 109 98
264 194 312 194 16 0 153 -7 305 -16z m1274 -191 c-4 -32 -8 -130 -8 -218 1
-149 10 -220 39 -295 5 -13 -23 -20 -161 -43 -282 -48 -740 -133 -1108 -207
-192 -38 -352 -70 -356 -70 -12 0 -61 114 -80 189 -42 166 -8 411 60 428 27 7
1586 270 1609 272 11 1 12 -11 5 -56z m-3178 17 c-3 -5 -11 -10 -16 -10 -6 0
-7 5 -4 10 3 6 11 10 16 10 6 0 7 -4 4 -10z m-73 -41 l5 -31 -51 6 c-28 3 -75
6 -105 6 -71 0 -58 11 37 31 109 24 109 24 114 -12z m-118 -69 c110 -11 215
-20 234 -20 l34 0 -8 -47 c-5 -27 -9 -115 -8 -198 0 -140 3 -156 32 -244 l31
-93 -27 5 c-15 3 -126 17 -247 32 -121 14 -230 28 -242 31 -28 5 -96 135 -120
227 -18 71 -13 181 12 261 21 68 30 77 74 71 20 -3 126 -14 235 -25z m631 -60
c120 -12 221 -22 222 -24 2 -2 -1 -23 -6 -47 -14 -58 -14 -254 0 -321 6 -29
22 -88 36 -131 14 -43 23 -80 22 -81 -2 -2 -114 10 -249 25 -135 16 -248 28
-251 29 -10 0 -46 96 -63 165 -23 94 -30 203 -17 298 16 116 17 119 55 112 17
-3 130 -14 251 -25z m725 -66 c168 -14 306 -27 308 -29 2 -1 -4 -19 -12 -39
-24 -58 -46 -179 -46 -256 0 -80 24 -209 47 -254 l15 -29 -88 6 c-271 17 -592
51 -605 64 -5 5 -21 54 -35 109 -22 81 -27 124 -28 234 0 74 3 157 7 184 l9
49 61 -7 c34 -3 199 -17 367 -32z m-1270 -509 c446 -63 899 -120 1230 -154
470 -48 411 -49 685 9 132 28 393 82 580 120 l341 69 109 -10 c194 -17 567
-75 502 -78 -154 -8 -1448 -175 -1903 -246 -142 -22 -157 -22 -245 -9 -254 37
-1836 243 -1965 255 -13 1 307 86 331 88 11 0 161 -19 335 -44z m-255 -169
c231 -35 682 -101 1002 -147 659 -94 591 -73 614 -188 16 -84 7 -220 -21 -301
-12 -36 -23 -66 -24 -67 -1 -2 -144 19 -317 47 -173 27 -613 92 -979 144 -366
53 -679 98 -697 101 -31 5 -32 7 -37 68 -3 34 -8 142 -11 240 l-6 179 28 -6
c15 -3 217 -35 448 -70z m3934 60 c6 -7 20 -40 32 -72 28 -80 28 -215 0 -304
l-20 -65 -211 -25 -211 -26 8 56 c16 108 7 229 -21 314 -15 43 -25 80 -24 82
2 1 98 14 213 27 116 14 213 25 216 26 4 0 12 -5 18 -13z m-490 -100 c41 -111
51 -266 23 -371 -8 -29 -11 -30 -98 -41 -49 -7 -113 -15 -143 -19 -49 -7 -53
-7 -47 11 30 95 23 246 -17 365 -14 41 -24 75 -24 75 2 2 244 31 269 33 11 1
23 -16 37 -53z m-339 -62 c16 -57 22 -100 22 -172 -1 -88 -15 -198 -27 -210
-5 -5 -372 -61 -402 -62 -8 0 -7 14 4 48 25 76 20 239 -10 340 -15 52 -20 82
-13 83 6 0 90 11 186 23 96 13 184 24 196 25 18 1 24 -10 44 -75z m-465 -46
c37 -130 12 -402 -38 -413 -31 -6 -299 -45 -314 -45 -8 0 -6 14 4 48 11 31 16
87 17 162 0 100 -3 125 -26 190 -14 41 -25 76 -23 78 4 5 278 40 321 41 l41 1
18 -62z m-420 -45 c24 -75 31 -261 13 -357 l-13 -70 -280 -47 c-154 -26 -281
-47 -282 -45 -1 1 7 31 19 66 32 96 32 278 0 374 -13 37 -20 71 -17 74 6 7
436 58 501 61 l40 1 19 -57z m1520 -387 c32 -96 36 -213 10 -324 -15 -64 -20
-73 -43 -78 -366 -87 -1093 -276 -1406 -365 -114 -33 -210 -59 -211 -57 -2 2
5 39 16 83 41 170 33 301 -27 435 -15 33 -25 62 -23 63 2 2 72 18 154 36 404
88 701 148 1020 207 193 36 377 71 410 78 33 7 63 10 67 7 4 -3 19 -42 33 -85z
m-1252 -83 c-7 -2 -19 -2 -25 0 -7 3 -2 5 12 5 14 0 19 -2 13 -5z m-48 -8 c-5
-3 -104 -25 -220 -50 -207 -45 -262 -51 -340 -37 -32 6 12 15 235 49 245 36
355 49 325 38z m1069 -477 c36 -48 56 -130 55 -222 0 -87 -24 -183 -49 -197
-14 -8 -523 -139 -539 -139 -5 0 -6 33 -3 73 6 96 -11 194 -52 295 -18 45 -33
82 -32 82 19 8 558 139 573 139 14 1 31 -11 47 -31z m-3938 -88 c122 -42 599
-193 879 -279 127 -39 270 -84 319 -101 50 -16 96 -30 103 -30 17 0 69 -56 92
-100 51 -95 57 -229 16 -358 -18 -58 -31 -82 -42 -82 -9 0 -262 72 -562 159
-300 88 -627 183 -726 211 -99 28 -185 53 -192 55 -8 3 1 29 26 78 70 135 76
293 16 424 -13 29 -23 53 -21 53 1 0 42 -14 92 -30z m3283 -89 c38 -88 51
-161 51 -277 0 -77 -4 -115 -12 -122 -7 -6 -114 -36 -238 -67 -124 -31 -327
-83 -452 -116 -124 -32 -228 -59 -230 -59 -1 0 -2 44 0 98 4 112 -12 196 -58
305 -16 39 -28 72 -27 74 2 1 20 -2 41 -8 44 -12 56 -10 251 46 83 24 251 71
375 105 124 34 230 63 235 65 31 11 44 2 64 -44z m-1014 -223 c46 -97 69 -220
62 -318 -9 -116 -13 -123 -93 -143 -38 -9 -226 -59 -419 -111 -192 -51 -351
-90 -353 -87 -1 4 7 33 18 65 59 173 46 341 -36 468 -10 15 -16 29 -14 31 3 2
141 29 308 61 237 46 458 93 490 105 2 1 18 -32 37 -71z"/>
<path d="M3780 6528 c-19 -6 -53 -23 -74 -39 -22 -16 -47 -29 -55 -29 -9 0
-31 -9 -49 -20 -23 -14 -50 -20 -92 -20 -51 0 -60 -3 -60 -18 0 -10 -5 -23
-10 -28 -16 -16 91 1 128 21 18 9 42 15 52 12 11 -3 26 3 35 13 9 10 31 24 48
29 29 11 30 11 13 -8 -17 -18 -17 -19 1 -23 25 -5 -50 -48 -83 -48 -14 0 -37
-9 -51 -20 -33 -25 -56 -26 -25 0 12 10 18 21 13 25 -6 3 -20 -8 -32 -24 -29
-39 -45 -44 -79 -27 -28 14 -28 13 -43 -30 l-14 -44 34 0 c38 0 64 11 106 46
20 17 41 24 72 24 25 0 65 10 97 25 71 33 88 33 88 -4 0 -16 -5 -42 -11 -58
-11 -28 -11 -28 -20 -5 -8 20 -22 32 -17 15 1 -5 -3 -18 -10 -30 -7 -13 -9
-23 -5 -23 4 0 2 -4 -6 -9 -11 -7 -10 -15 8 -44 11 -19 21 -51 21 -72 0 -30 3
-36 16 -31 9 3 23 6 32 6 13 0 17 9 18 35 0 18 -3 32 -8 29 -5 -3 -8 -2 -7 3
1 4 -1 16 -6 26 -4 9 -5 29 -2 43 3 18 1 24 -9 20 -8 -3 -11 0 -7 9 3 8 9 13
13 10 8 -5 26 263 19 269 -2 2 -20 -1 -39 -6z m19 -415 c1 -7 -3 -13 -9 -13
-5 0 -10 15 -9 33 0 27 2 29 9 12 5 -11 9 -26 9 -32z"/>
<path d="M2279 6415 c-4 -3 1 -35 9 -70 17 -69 13 -86 -14 -64 -16 13 -17 11
-11 -12 9 -37 -25 -69 -55 -50 -16 10 -19 10 -16 0 2 -7 12 -17 21 -23 15 -9
25 -3 57 33 22 25 40 54 40 65 -1 34 -25 128 -31 121z"/>
<path d="M2319 6415 c-3 -5 -1 -30 4 -55 5 -25 11 -40 13 -35 6 15 -11 101
-17 90z"/>
<path d="M2136 6401 c-3 -5 1 -11 9 -15 15 -6 29 7 18 18 -9 9 -21 8 -27 -3z"/>
<path d="M2390 6400 c-18 -12 -2 -12 25 0 13 6 15 9 5 9 -8 0 -22 -4 -30 -9z"/>
<path d="M2463 6395 c0 -8 4 -12 9 -9 4 3 8 9 8 15 0 5 -4 9 -8 9 -5 0 -9 -7
-9 -15z"/>
<path d="M2501 6398 c-1 -23 20 -120 25 -115 2 2 -2 33 -10 68 -8 35 -14 56
-15 47z"/>
<path d="M1964 6383 c3 -10 8 -35 12 -56 3 -21 9 -36 11 -33 9 8 -9 106 -19
106 -5 0 -7 -8 -4 -17z"/>
<path d="M2005 6355 c9 -65 24 -81 18 -18 -3 26 -10 53 -15 58 -6 6 -7 -8 -3
-40z"/>
<path d="M2046 6387 c3 -10 9 -15 12 -12 3 3 0 11 -7 18 -10 9 -11 8 -5 -6z"/>
<path d="M2096 6385 c4 -8 8 -15 10 -15 2 0 4 7 4 15 0 8 -4 15 -10 15 -5 0
-7 -7 -4 -15z"/>
<path d="M2210 6385 c-14 -8 -20 -14 -14 -15 5 0 19 7 30 15 24 18 16 19 -16
0z"/>
<path d="M1816 6381 c-4 -5 -2 -12 3 -15 5 -4 12 -2 15 3 4 5 2 12 -3 15 -5 4
-12 2 -15 -3z"/>
<path d="M1871 6364 c-19 -8 -32 -17 -29 -19 3 -3 25 3 49 14 24 11 37 20 29
20 -8 0 -30 -6 -49 -15z"/>
<path d="M2473 6340 c3 -14 8 -33 12 -42 5 -13 2 -18 -9 -18 -9 0 -19 8 -22
18 -16 48 -23 55 -17 15 5 -39 4 -43 -15 -43 -24 0 -42 27 -34 50 3 11 2 12
-8 4 -9 -9 -8 -19 4 -43 16 -31 39 -40 51 -21 3 6 17 7 30 4 31 -8 40 22 20
67 -13 27 -15 29 -12 9z"/>
<path d="M2750 6344 c0 -6 13 -23 30 -39 34 -33 31 -46 -10 -41 -17 2 -30 -1
-30 -5 0 -5 -7 -9 -15 -9 -8 0 -15 4 -15 9 0 6 -17 3 -37 -6 -35 -14 -86 -14
-124 1 -9 4 -31 -4 -53 -19 -20 -14 -42 -22 -48 -19 -7 4 -8 2 -4 -4 10 -17
23 -15 57 10 20 15 32 19 37 12 9 -13 58 -11 241 10 13 1 28 11 33 20 8 15 3
25 -26 55 -20 19 -36 31 -36 25z"/>
<path d="M2140 6330 c0 -5 10 -10 22 -10 l21 0 -23 -25 c-13 -14 -29 -24 -36
-21 -18 7 -24 -4 -14 -25 20 -37 -67 -68 -90 -31 -10 16 -11 16 -8 -2 2 -10
11 -24 20 -30 25 -15 86 16 94 49 6 23 10 25 35 20 26 -6 29 -4 29 19 0 23 4
26 34 26 19 0 38 5 41 11 10 15 7 16 -62 23 -42 5 -63 3 -63 -4z"/>
<path d="M1938 6323 c7 -3 16 -2 19 1 4 3 -2 6 -13 5 -11 0 -14 -3 -6 -6z"/>
<path d="M2692 6321 c4 -13 18 -16 19 -4 0 4 -5 9 -11 12 -7 2 -11 -2 -8 -8z"/>
<path d="M1760 6314 c0 -3 7 -12 15 -20 16 -17 18 -14 9 10 -6 15 -24 23 -24
10z"/>
<path d="M1855 6310 c-3 -5 1 -10 9 -10 9 0 16 -5 16 -10 0 -6 -11 -8 -26 -4
-20 5 -26 2 -30 -13 -7 -26 -61 -66 -80 -59 -8 3 -14 1 -14 -4 0 -20 22 -20
54 -1 18 12 44 21 56 21 22 0 22 1 7 18 -21 23 -22 39 -2 22 11 -9 22 -9 52 1
21 6 45 14 53 17 10 3 7 7 -10 12 -62 17 -79 19 -85 10z"/>
<path d="M2060 6291 c0 -5 5 -13 10 -16 6 -3 10 -2 10 4 0 5 -4 13 -10 16 -5
3 -10 2 -10 -4z"/>
<path d="M3896 6278 c-13 -18 -18 -19 -31 -8 -19 15 -21 13 -31 -24 -5 -22 -4
-27 6 -21 9 5 11 4 6 -4 -4 -6 -12 -9 -17 -6 -15 10 -10 -19 7 -43 9 -14 14
-36 12 -53 -6 -38 11 -38 19 1 8 41 33 39 33 -3 0 -28 -4 -33 -27 -35 -16 -1
-29 -6 -31 -12 -2 -5 -10 -6 -18 -3 -10 4 -13 0 -8 -13 4 -13 3 -15 -3 -7 -5
7 -26 15 -46 18 l-37 6 0 -40 c0 -23 -5 -41 -11 -41 -6 0 -8 7 -4 18 5 14 4
15 -6 5 -20 -20 -29 -15 -29 16 0 16 -7 34 -15 41 -27 22 -29 76 -5 131 12 28
19 53 16 56 -3 3 -8 -6 -12 -21 -3 -14 -11 -23 -17 -19 -5 3 -7 2 -4 -3 3 -6
2 -16 -3 -23 -6 -10 -9 -8 -15 8 -7 24 -25 29 -25 6 0 -8 -7 -30 -16 -49 -18
-38 -12 -103 7 -75 13 18 2 -40 -17 -91 l-13 -35 0 31 c-1 39 -29 134 -40 134
-5 0 -6 11 -3 25 3 18 0 25 -12 25 -9 0 -16 -4 -16 -9 0 -5 -3 -18 -6 -28 -5
-15 -4 -15 5 -3 8 12 10 11 9 -7 -1 -12 -7 -19 -15 -16 -18 7 -16 -23 3 -52 9
-14 14 -39 12 -65 l-3 -42 -25 27 -25 27 24 -7 25 -8 -26 32 c-15 17 -29 40
-33 51 -9 27 -25 25 -25 -2 -1 -22 -2 -22 -26 7 -25 29 -25 29 -19 5 4 -14 13
-30 21 -36 15 -12 33 -83 34 -131 0 -20 5 -33 13 -33 17 0 57 -60 50 -76 -7
-18 -18 -18 -37 2 -9 8 -16 12 -16 9 0 -4 -16 10 -35 31 -30 34 -35 36 -35 18
0 -22 -22 -48 -33 -39 -4 3 -5 2 -3 -1 3 -3 -6 -17 -20 -31 -27 -27 -31 -43
-11 -43 7 0 96 14 198 30 101 17 245 40 319 50 248 36 391 63 378 72 -7 4 -21
5 -32 2 -12 -4 -16 -2 -12 5 5 7 -3 9 -25 4 -39 -7 -33 11 7 21 18 5 37 0 61
-14 35 -21 64 -26 77 -13 12 13 -84 50 -122 47 -33 -2 -35 -1 -18 12 17 12 17
14 3 20 -9 3 -15 10 -12 14 3 5 0 12 -6 16 -8 4 -9 3 -5 -4 5 -8 -2 -12 -22
-12 -26 0 -30 5 -46 55 -12 40 -15 71 -11 108 5 40 3 57 -9 72 -16 19 -16 19
-5 -7 12 -28 6 -63 -10 -54 -5 3 -11 -1 -14 -8 -3 -8 -1 -17 6 -20 7 -2 5 -5
-5 -5 -19 -1 -33 -35 -21 -53 4 -7 8 -17 8 -23 0 -5 10 -9 22 -8 14 2 24 -4
28 -17 9 -29 -3 -43 -34 -35 -38 9 -45 21 -13 20 15 0 31 -4 35 -10 5 -6 7 -4
4 5 -2 8 -10 14 -16 12 -18 -4 -71 30 -71 45 0 7 -4 13 -8 13 -5 0 -7 14 -4
30 3 23 -2 37 -21 56 -28 28 -26 45 9 99 20 31 11 34 -10 3z m-282 -126 c3 -5
-1 -9 -9 -9 -8 0 -12 4 -9 9 3 4 7 8 9 8 2 0 6 -4 9 -8z m304 -97 c-3 -13 -1
-22 3 -19 5 3 9 -3 9 -13 0 -13 -8 -18 -30 -18 -16 0 -30 3 -30 8 0 4 -8 7
-17 7 -13 1 -9 8 17 30 42 36 54 38 48 5z m-260 -33 c2 -19 -1 -32 -8 -32 -6
0 -9 -4 -6 -9 7 -11 -12 -27 -44 -34 -23 -5 -23 -5 -7 7 12 9 14 15 6 18 -8 3
-5 17 10 47 25 48 45 49 49 3z m-114 -18 c10 -25 7 -62 -5 -70 -15 -9 9 -24
38 -24 29 0 38 -17 19 -36 -12 -11 -20 -12 -35 -5 -11 6 -27 8 -35 5 -9 -3
-16 -1 -16 5 0 6 -9 11 -20 11 -11 0 -24 8 -27 17 -6 15 -7 15 -14 -3 -6 -16
-8 -15 -8 8 -1 33 18 47 34 25 7 -10 20 -17 29 -17 13 0 16 10 16 50 0 49 12
66 24 34z m264 -20 c47 -28 45 -38 -8 -45 -30 -4 -72 33 -64 56 8 21 20 19 72
-11z m182 -11 c29 -24 30 -27 13 -36 -10 -5 -23 -16 -30 -24 -9 -12 -14 -9
-29 16 -10 16 -21 28 -26 25 -4 -3 -13 -2 -19 2 -6 4 1 13 18 24 37 24 36 24
73 -7z m80 2 c26 -27 21 -47 -5 -21 -9 9 -21 16 -26 16 -5 0 -9 7 -9 15 0 22
13 18 40 -10z m-369 -19 c-6 -8 -20 -16 -30 -19 -14 -3 -17 0 -14 14 4 12 14
19 30 19 21 0 23 -3 14 -14z m30 -57 c33 -35 37 -51 12 -42 -26 9 -73 55 -67
65 9 15 26 8 55 -23z m103 15 c26 -10 19 -34 -10 -34 -14 0 -23 4 -19 10 5 9
-16 15 -38 11 -5 -1 -6 3 -2 9 7 11 45 13 69 4z m70 -3 c3 -5 -6 -11 -21 -14
-26 -5 -26 -4 -8 9 22 17 22 17 29 5z m111 -32 c-37 -14 -47 -11 -35 11 9 17
14 18 33 9 21 -12 21 -12 2 -20z m-65 2 c0 -11 -25 -21 -53 -21 -22 1 -22 1
-3 15 22 17 56 20 56 6z m-264 -13 c11 -18 -26 -40 -44 -26 -12 10 -11 14 4
25 22 16 31 16 40 1z m129 -18 c3 -5 -3 -10 -15 -10 -12 0 -18 5 -15 10 3 6
10 10 15 10 5 0 12 -4 15 -10z m-255 -42 c0 -11 -7 -10 -31 2 -28 16 -23 32 6
18 14 -6 25 -15 25 -20z m60 28 c0 -3 -4 -8 -10 -11 -5 -3 -10 -1 -10 4 0 6 5
11 10 11 6 0 10 -2 10 -4z"/>
<path d="M2320 6285 c0 -5 4 -16 9 -24 12 -18 41 -7 41 16 0 15 -1 15 -14 -2
-13 -18 -13 -18 -24 1 -6 10 -11 15 -12 9z"/>
<path d="M1951 6249 c-19 -11 -42 -30 -52 -42 -16 -19 -20 -20 -29 -7 -8 13
-10 13 -10 -2 0 -24 24 -23 52 3 13 11 37 31 53 44 37 30 31 32 -14 4z"/>
<path d="M2228 6243 c7 -3 16 -2 19 1 4 3 -2 6 -13 5 -11 0 -14 -3 -6 -6z"/>
<path d="M2150 6215 c0 -8 2 -15 4 -15 2 0 6 7 10 15 3 8 1 15 -4 15 -6 0 -10
-7 -10 -15z"/>
<path d="M2345 6220 c-13 -6 -15 -9 -5 -9 8 0 22 4 30 9 18 12 2 12 -25 0z"/>
<path d="M2800 6220 c0 -5 5 -10 11 -10 5 0 7 5 4 10 -3 6 -8 10 -11 10 -2 0
-4 -4 -4 -10z"/>
<path d="M1952 6196 c7 -8 15 -12 17 -11 5 6 -10 25 -20 25 -5 0 -4 -6 3 -14z"/>
<path d="M1820 6190 c0 -5 5 -10 10 -10 6 0 10 5 10 10 0 6 -4 10 -10 10 -5 0
-10 -4 -10 -10z"/>
<path d="M4469 5532 c-19 -15 -46 -35 -60 -45 -23 -17 -23 -17 9 0 32 17 103
72 92 72 -3 0 -21 -12 -41 -27z"/>
<path d="M4310 5515 c-1 -28 -21 -52 -56 -66 -27 -12 -28 -13 -6 -16 12 -3 22
-8 22 -12 0 -4 -10 -13 -22 -20 -18 -9 -18 -10 -3 -5 54 17 55 17 62 -16 l6
-33 14 36 c10 24 25 39 46 48 24 9 28 13 14 16 -9 3 -15 8 -12 13 3 4 -3 7
-13 6 -10 0 -24 13 -34 34 -13 26 -18 30 -18 15z"/>
<path d="M1880 5455 c0 -7 61 -37 66 -33 2 3 -12 12 -31 21 -19 9 -35 15 -35
12z"/>
<path d="M2000 5395 c14 -8 30 -14 35 -14 6 0 -1 6 -15 14 -14 8 -29 14 -35
14 -5 0 1 -6 15 -14z"/>
<path d="M2060 5372 c8 -5 26 -13 40 -16 17 -5 20 -4 10 2 -8 5 -26 13 -40 16
-17 5 -20 4 -10 -2z"/>
<path d="M2160 5335 c19 -7 42 -13 50 -13 8 0 -1 6 -20 13 -19 7 -42 13 -50
13 -8 0 1 -6 20 -13z"/>
<path d="M4058 5333 c7 -3 16 -2 19 1 4 3 -2 6 -13 5 -11 0 -14 -3 -6 -6z"/>
<path d="M3958 5303 c7 -3 16 -2 19 1 4 3 -2 6 -13 5 -11 0 -14 -3 -6 -6z"/>
<path d="M2300 5297 c8 -8 252 -57 281 -56 13 0 -30 11 -96 24 -66 13 -136 27
-155 31 -19 4 -33 4 -30 1z"/>
<path d="M3918 5293 c7 -3 16 -2 19 1 4 3 -2 6 -13 5 -11 0 -14 -3 -6 -6z"/>
<path d="M3868 5283 c6 -2 18 -2 25 0 6 3 1 5 -13 5 -14 0 -19 -2 -12 -5z"/>
<path d="M3828 5273 c7 -3 16 -2 19 1 4 3 -2 6 -13 5 -11 0 -14 -3 -6 -6z"/>
<path d="M3778 5263 c6 -2 18 -2 25 0 6 3 1 5 -13 5 -14 0 -19 -2 -12 -5z"/>
<path d="M3723 5253 c9 -2 23 -2 30 0 6 3 -1 5 -18 5 -16 0 -22 -2 -12 -5z"/>
<path d="M3658 5243 c6 -2 18 -2 25 0 6 3 1 5 -13 5 -14 0 -19 -2 -12 -5z"/>
<path d="M2628 5233 c12 -2 30 -2 40 0 9 3 -1 5 -23 4 -22 0 -30 -2 -17 -4z"/>
<path d="M3593 5233 c9 -2 23 -2 30 0 6 3 -1 5 -18 5 -16 0 -22 -2 -12 -5z"/>
<path d="M2708 5223 c12 -2 32 -2 45 0 12 2 2 4 -23 4 -25 0 -35 -2 -22 -4z"/>
<path d="M3503 5223 c9 -2 25 -2 35 0 9 3 1 5 -18 5 -19 0 -27 -2 -17 -5z"/>
<path d="M2813 5213 c15 -2 39 -2 55 0 15 2 2 4 -28 4 -30 0 -43 -2 -27 -4z"/>
<path d="M3383 5213 c15 -2 39 -2 55 0 15 2 2 4 -28 4 -30 0 -43 -2 -27 -4z"/>
<path d="M3138 5183 c7 -3 16 -2 19 1 4 3 -2 6 -13 5 -11 0 -14 -3 -6 -6z"/>
<path d="M3098 5173 c7 -3 16 -2 19 1 4 3 -2 6 -13 5 -11 0 -14 -3 -6 -6z"/>
<path d="M3058 5163 c7 -3 16 -2 19 1 4 3 -2 6 -13 5 -11 0 -14 -3 -6 -6z"/>
<path d="M1880 5145 c14 -8 32 -14 40 -14 8 0 0 6 -19 14 -42 19 -54 19 -21 0z"/>
<path d="M3018 5153 c7 -3 16 -2 19 1 4 3 -2 6 -13 5 -11 0 -14 -3 -6 -6z"/>
<path d="M2868 5123 c6 -2 18 -2 25 0 6 3 1 5 -13 5 -14 0 -19 -2 -12 -5z"/>
<path d="M1978 5113 c7 -3 16 -2 19 1 4 3 -2 6 -13 5 -11 0 -14 -3 -6 -6z"/>
<path d="M2813 5113 c9 -2 23 -2 30 0 6 3 -1 5 -18 5 -16 0 -22 -2 -12 -5z"/>
<path d="M2018 5103 c7 -3 16 -2 19 1 4 3 -2 6 -13 5 -11 0 -14 -3 -6 -6z"/>
<path d="M2753 5103 c9 -2 23 -2 30 0 6 3 -1 5 -18 5 -16 0 -22 -2 -12 -5z"/>
<path d="M2068 5093 c6 -2 18 -2 25 0 6 3 1 5 -13 5 -14 0 -19 -2 -12 -5z"/>
<path d="M2673 5093 c9 -2 25 -2 35 0 9 3 1 5 -18 5 -19 0 -27 -2 -17 -5z"/>
<path d="M2138 5083 c12 -2 32 -2 45 0 12 2 2 4 -23 4 -25 0 -35 -2 -22 -4z"/>
<path d="M2578 5083 c12 -2 32 -2 45 0 12 2 2 4 -23 4 -25 0 -35 -2 -22 -4z"/>
<path d="M2288 5073 c46 -2 118 -2 160 0 42 1 5 3 -83 3 -88 0 -123 -2 -77 -3z"/>
<path d="M4465 4564 c-453 -77 -995 -180 -1008 -193 -20 -20 15 -19 149 5 170
30 1131 190 1197 200 52 7 67 19 46 38 -11 10 -90 0 -384 -50z"/>
<path d="M4775 4413 c-279 -35 -915 -164 -1247 -254 -36 -9 -50 -31 -29 -43 5
-4 78 10 163 30 240 56 423 92 688 135 287 47 481 86 494 99 11 11 -10 41 -28
39 -6 -1 -24 -4 -41 -6z"/>
<path d="M4183 3134 c11 -36 81 -124 99 -124 5 0 -4 11 -21 25 -16 14 -42 50
-57 80 -14 30 -28 55 -29 55 -2 0 2 -16 8 -36z"/>
<path d="M4865 3159 c-4 -6 -5 -12 -2 -15 2 -3 7 2 10 11 7 17 1 20 -8 4z"/>
<path d="M4796 3145 c-3 -9 -6 -26 -5 -38 1 -14 4 -9 9 13 9 37 7 52 -4 25z"/>
<path d="M4826 3145 c-3 -9 -6 -24 -5 -33 0 -9 5 -4 10 12 9 32 6 48 -5 21z"/>
<path d="M4261 3102 c13 -23 34 -50 48 -59 25 -16 24 -15 -4 18 -16 19 -38 46
-48 59 -11 16 -10 9 4 -18z"/>
<path d="M4740 3124 c0 -12 -6 -15 -22 -9 -13 4 -48 8 -78 10 l-55 4 55 -8
c30 -5 66 -13 80 -19 23 -9 26 -7 28 14 1 13 0 24 -3 24 -3 0 -5 -7 -5 -16z"/>
<path d="M4869 3113 c-5 -14 -8 -30 -6 -36 1 -5 8 7 14 27 13 42 7 49 -8 9z"/>
<path d="M4120 3125 c0 -21 46 -88 73 -109 50 -38 53 -31 6 12 -23 20 -48 52
-56 70 -12 28 -23 41 -23 27z"/>
<path d="M4309 3112 c5 -9 19 -26 32 -37 19 -16 18 -13 -5 18 -30 39 -43 49
-27 19z"/>
<path d="M4846 3115 c-3 -9 -5 -29 -5 -43 1 -20 3 -17 9 13 8 43 7 57 -4 30z"/>
<path d="M4945 3121 c17 -4 40 -13 52 -19 12 -7 25 -12 30 -12 21 1 -65 39
-87 39 -23 -1 -22 -2 5 -8z"/>
<path d="M5008 3123 c7 -3 16 -2 19 1 4 3 -2 6 -13 5 -11 0 -14 -3 -6 -6z"/>
<path d="M4911 3106 c2 -2 18 -6 34 -10 22 -5 26 -4 15 4 -14 9 -59 15 -49 6z"/>
<path d="M4409 3063 c-22 -20 -54 -64 -71 -97 -25 -50 -31 -74 -32 -132 0 -40
-4 -70 -8 -67 -4 2 -5 -3 -2 -11 13 -34 26 -15 20 27 -14 92 35 221 108 283
22 19 37 34 33 34 -4 0 -25 -17 -48 -37z"/>
<path d="M4497 3076 c-107 -52 -158 -135 -155 -251 l1 -70 7 80 c7 88 23 126
72 176 85 84 228 104 319 45 24 -16 38 -22 30 -12 -49 59 -186 75 -274 32z"/>
<path d="M4080 3085 c0 -21 45 -88 77 -114 35 -29 130 -67 141 -56 2 2 -9 7
-24 11 -53 13 -101 43 -138 85 -20 24 -36 48 -36 55 0 7 -4 16 -10 19 -5 3
-10 3 -10 0z"/>
<path d="M4760 3087 c0 -3 12 -12 26 -22 15 -9 23 -12 20 -6 -7 11 -46 35 -46
28z"/>
<path d="M4916 3073 c-5 -16 -25 -29 -67 -44 -71 -26 -73 -35 -2 -14 52 16 88
45 81 67 -3 8 -8 4 -12 -9z"/>
<path d="M4994 3076 c11 -9 24 -16 30 -16 12 0 7 5 -24 19 -24 11 -24 11 -6
-3z"/>
<path d="M4525 3048 c-92 -47 -145 -131 -145 -230 0 -31 4 -59 8 -62 5 -3 7
19 4 48 -6 70 10 114 59 169 77 88 183 111 260 56 19 -13 28 -16 21 -7 -39 49
-139 61 -207 26z"/>
<path d="M4040 3052 c0 -5 15 -31 33 -58 38 -57 109 -114 140 -113 19 1 19 2
-4 9 -44 13 -89 52 -130 114 -21 32 -39 54 -39 48z"/>
<path d="M4919 3030 c-15 -14 -53 -34 -85 -44 -61 -19 -116 -65 -127 -105 -3
-12 -1 -19 4 -15 5 3 9 11 9 18 0 24 75 82 122 95 42 12 120 64 108 73 -3 2
-17 -8 -31 -22z"/>
<path d="M5005 3002 c-11 -20 -38 -47 -60 -60 -26 -15 -32 -21 -15 -16 14 3
36 16 48 28 24 21 57 75 50 81 -2 2 -12 -13 -23 -33z"/>
<path d="M4588 3020 c-90 -17 -175 -127 -165 -216 l4 -39 1 45 c3 62 54 147
107 177 31 19 52 23 97 21 31 -2 54 0 50 3 -13 12 -57 16 -94 9z"/>
<path d="M4942 3005 c-13 -13 -46 -31 -73 -40 -49 -17 -119 -67 -119 -87 0 -5
10 3 23 17 12 15 55 41 96 58 40 18 80 42 89 55 19 29 13 28 -16 -3z"/>
<path d="M5080 3011 c0 -7 -4 -9 -10 -6 -6 4 -7 -1 -3 -11 6 -15 7 -15 15 1 6
9 7 19 4 22 -3 4 -6 1 -6 -6z"/>
<path d="M4960 2985 c-12 -13 -45 -32 -71 -40 -27 -9 -51 -20 -54 -25 -12 -20
106 35 131 61 15 16 25 29 23 29 -3 0 -16 -11 -29 -25z"/>
<path d="M4748 2982 c-34 -22 -63 -60 -72 -92 -5 -17 0 -14 13 12 11 20 37 50
58 67 42 34 42 40 1 13z"/>
<path d="M3971 2976 c-6 -8 -25 -19 -42 -26 -16 -7 -28 -15 -25 -17 6 -7 60
23 75 41 8 9 11 16 8 16 -2 0 -10 -6 -16 -14z"/>
<path d="M4260 2980 c8 -5 20 -10 25 -10 6 0 3 5 -5 10 -8 5 -19 10 -25 10 -5
0 -3 -5 5 -10z"/>
<path d="M4558 2970 c-20 -11 -45 -32 -57 -48 -22 -32 -46 -114 -38 -134 3 -8
6 -5 6 7 5 110 111 212 182 175 22 -12 23 -12 10 3 -18 22 -57 21 -103 -3z"/>
<path d="M3985 2935 c-16 -13 -55 -34 -87 -46 -32 -12 -57 -23 -55 -26 9 -9
115 39 147 66 42 36 38 41 -5 6z"/>
<path d="M4070 2939 c0 -7 17 -28 38 -48 37 -35 99 -62 138 -60 11 0 -1 6 -26
13 -62 17 -82 29 -119 71 -17 20 -31 30 -31 24z"/>
<path d="M4601 2899 c-6 -18 -10 -46 -10 -63 1 -28 2 -27 8 9 4 22 11 50 15
63 4 12 5 22 3 22 -3 0 -10 -14 -16 -31z"/>
<path d="M4015 2900 c-26 -28 -114 -68 -177 -80 l-53 -9 54 4 c62 5 145 42
181 80 13 14 21 25 18 25 -3 0 -13 -9 -23 -20z"/>
<path d="M4545 2866 c-9 -31 -15 -64 -12 -74 2 -9 7 1 11 23 4 22 12 53 17 69
5 16 7 31 5 34 -3 2 -12 -21 -21 -52z"/>
<path d="M4636 2895 c-3 -9 -5 -29 -5 -43 1 -20 3 -17 9 13 8 43 7 57 -4 30z"/>
<path d="M4064 2882 c13 -21 110 -72 136 -72 17 1 10 6 -25 18 -28 10 -66 28
-85 42 -18 13 -30 18 -26 12z"/>
<path d="M4506 2868 c-3 -13 -5 -39 -5 -58 1 -27 3 -22 9 20 9 58 7 77 -4 38z"/>
<path d="M4248 2873 c7 -3 16 -2 19 1 4 3 -2 6 -13 5 -11 0 -14 -3 -6 -6z"/>
<path d="M3980 2833 c-14 -10 -54 -28 -90 -40 -36 -12 -57 -23 -48 -23 26 0
120 38 148 60 31 24 23 26 -10 3z"/>
<path d="M4073 2813 c9 -2 25 -2 35 0 9 3 1 5 -18 5 -19 0 -27 -2 -17 -5z"/>
<path d="M4180 2788 c30 -12 71 -32 90 -46 l35 -24 -30 27 c-36 32 -102 65
-130 64 -11 0 5 -9 35 -21z"/>
<path d="M4248 2803 c7 -3 16 -2 19 1 4 3 -2 6 -13 5 -11 0 -14 -3 -6 -6z"/>
<path d="M4018 2783 c17 -2 47 -2 65 0 17 2 3 4 -33 4 -36 0 -50 -2 -32 -4z"/>
<path d="M4164 2760 c27 -11 59 -28 71 -40 11 -11 25 -20 29 -20 4 0 -6 11
-22 25 -32 26 -92 55 -114 55 -7 -1 9 -10 36 -20z"/>
<path d="M3752 2743 c-37 -54 -73 -141 -51 -128 5 4 9 14 9 24 0 9 15 43 34
74 36 60 41 76 8 30z"/>
<path d="M3977 2749 c-54 -8 -128 -48 -152 -81 -27 -39 -16 -40 17 -2 49 55
98 74 197 74 46 0 82 2 80 4 -10 8 -98 12 -142 5z"/>
<path d="M3783 2718 c-32 -34 -68 -96 -60 -104 2 -3 10 10 18 28 7 18 29 50
47 70 42 46 38 50 -5 6z"/>
<path d="M3839 2727 c-32 -27 -64 -75 -55 -84 3 -3 6 -1 6 6 0 6 19 32 41 56
46 49 48 56 8 22z"/>
<path d="M4131 2736 c8 -8 79 -35 79 -30 0 3 -16 12 -35 20 -33 14 -53 18 -44
10z"/>
<path d="M3679 2675 c-11 -25 -19 -50 -17 -55 2 -4 13 16 24 46 26 66 21 72
-7 9z"/>
<path d="M3925 2696 c-27 -12 -57 -31 -65 -42 -14 -18 -14 -18 5 -3 27 22 81
49 97 49 7 -1 1 -8 -14 -16 -16 -8 -28 -17 -28 -20 0 -2 10 1 22 7 12 6 33 15
47 20 l26 7 -25 2 c-24 2 -23 3 5 10 28 7 28 8 5 9 -14 0 -47 -10 -75 -23z"/>
<path d="M3636 2648 c-3 -13 -5 -32 -5 -43 1 -11 5 -2 10 19 10 42 6 62 -5 24z"/>
<path d="M3606 2645 c-3 -9 -6 -26 -5 -38 1 -14 4 -9 9 13 9 37 7 52 -4 25z"/>
<path d="M984 2439 c-3 -6 -2 -15 4 -21 16 -16 1305 -409 1321 -403 29 11 -9
27 -225 97 -329 105 -1076 338 -1085 338 -4 0 -11 -5 -15 -11z"/>
<path d="M980 2242 c0 -16 53 -35 323 -120 919 -287 1010 -313 1029 -294 14
14 -41 39 -172 76 -121 35 -461 141 -841 262 -163 52 -306 94 -318 94 -14 0
-21 -6 -21 -18z"/>
<path d="M5532 5755 c0 -16 2 -22 5 -12 2 9 2 23 0 30 -3 6 -5 -1 -5 -18z"/>
<path d="M5791 5734 c0 -11 3 -14 6 -6 3 7 2 16 -1 19 -3 4 -6 -2 -5 -13z"/>
<path d="M5561 5694 c0 -11 3 -14 6 -6 3 7 2 16 -1 19 -3 4 -6 -2 -5 -13z"/>
<path d="M5542 5680 c0 -14 2 -19 5 -12 2 6 2 18 0 25 -3 6 -5 1 -5 -13z"/>
<path d="M5781 5684 c0 -11 3 -14 6 -6 3 7 2 16 -1 19 -3 4 -6 -2 -5 -13z"/>
<path d="M5811 5684 c0 -11 3 -14 6 -6 3 7 2 16 -1 19 -3 4 -6 -2 -5 -13z"/>
<path d="M5610 5661 c0 -6 4 -13 10 -16 6 -3 7 1 4 9 -7 18 -14 21 -14 7z"/>
<path d="M5862 5640 c0 -19 2 -27 5 -17 2 9 2 25 0 35 -3 9 -5 1 -5 -18z"/>
<path d="M5551 5624 c0 -11 3 -14 6 -6 3 7 2 16 -1 19 -3 4 -6 -2 -5 -13z"/>
<path d="M5650 5590 c6 -11 13 -20 16 -20 2 0 0 9 -6 20 -6 11 -13 20 -16 20
-2 0 0 -9 6 -20z"/>
<path d="M5801 5594 c0 -11 3 -14 6 -6 3 7 2 16 -1 19 -3 4 -6 -2 -5 -13z"/>
<path d="M5862 5565 c0 -16 2 -22 5 -12 2 9 2 23 0 30 -3 6 -5 -1 -5 -18z"/>
<path d="M5571 5524 c0 -11 3 -14 6 -6 3 7 2 16 -1 19 -3 4 -6 -2 -5 -13z"/>
<path d="M5732 5510 c0 -14 2 -19 5 -12 2 6 2 18 0 25 -3 6 -5 1 -5 -13z"/>
<path d="M5870 5515 c-14 -8 -20 -14 -15 -14 6 0 21 6 35 14 14 8 21 14 15 14
-5 0 -21 -6 -35 -14z"/>
<path d="M5921 5517 c2 -1 13 -9 24 -17 19 -14 19 -14 6 3 -7 9 -18 17 -24 17
-6 0 -8 -1 -6 -3z"/>
<path d="M5716 5477 c3 -10 9 -15 12 -12 3 3 0 11 -7 18 -10 9 -11 8 -5 -6z"/>
<path d="M5830 5480 c-9 -6 -10 -10 -3 -10 6 0 15 5 18 10 8 12 4 12 -15 0z"/>
<path d="M5933 5465 c0 -8 4 -15 9 -15 4 0 8 4 8 9 0 6 -4 12 -8 15 -5 3 -9
-1 -9 -9z"/>
<path d="M5815 5450 c3 -5 8 -10 11 -10 2 0 4 5 4 10 0 6 -5 10 -11 10 -5 0
-7 -4 -4 -10z"/>
<path d="M5972 5416 c-2 -38 1 -46 11 -38 6 6 23 12 37 15 18 3 16 4 -7 3 -30
-2 -32 1 -36 34 -3 29 -4 26 -5 -14z"/>
<path d="M5734 5437 c3 -10 6 -25 6 -33 0 -8 5 -14 10 -14 15 0 12 22 -7 45
-14 18 -15 18 -9 2z"/>
<path d="M5600 5434 c0 -6 7 -19 16 -30 14 -18 14 -18 3 6 -14 31 -19 36 -19
24z"/>
<path d="M5806 5427 c3 -10 9 -15 12 -12 3 3 0 11 -7 18 -10 9 -11 8 -5 -6z"/>
<path d="M5952 5420 c0 -14 2 -19 5 -12 2 6 2 18 0 25 -3 6 -5 1 -5 -13z"/>
<path d="M5792 5356 c-15 -40 -31 -39 -33 2 -1 21 -2 23 -6 7 -3 -11 -10 -26
-17 -34 -8 -12 -8 -13 2 -7 6 4 12 3 12 -2 0 -19 -14 -21 -32 -5 -10 9 -18 12
-18 8 0 -5 -15 4 -32 21 l-33 29 29 -32 c16 -18 31 -31 34 -29 2 3 17 -10 33
-28 27 -32 28 -37 32 -157 l3 -124 2 147 c2 129 5 151 23 182 11 20 19 41 17
47 -2 6 -9 -6 -16 -25z"/>
<path d="M6088 5365 c5 -11 12 -27 15 -35 5 -13 6 -13 6 1 1 8 -6 24 -15 35
-15 19 -15 19 -6 -1z"/>
<path d="M5942 5322 l-23 -37 26 28 c14 15 25 32 25 38 0 14 -3 11 -28 -29z"/>
<path d="M5810 5343 c0 -6 9 -21 21 -34 l20 -24 -17 30 c-24 39 -24 40 -24 28z"/>
<path d="M6075 5310 c0 -21 3 -36 8 -33 4 2 7 17 7 33 0 16 -3 31 -7 33 -5 3
-8 -12 -8 -33z"/>
<path d="M5861 5288 c0 -18 3 -27 6 -20 9 22 23 13 24 -15 l1 -28 7 30 c5 24
3 31 -11 33 -10 2 -15 9 -11 18 3 8 0 14 -6 14 -6 0 -11 -15 -10 -32z"/>
<path d="M5333 5260 c0 -30 2 -43 4 -27 2 15 2 39 0 55 -2 15 -4 2 -4 -28z"/>
<path d="M6097 5283 c-10 -51 -56 -95 -108 -103 l-44 -7 37 -2 c28 -1 46 6 71
29 36 31 62 80 55 102 -3 7 -7 -2 -11 -19z"/>
<path d="M651 5273 c0 -11 3 -13 6 -5 2 6 9 12 14 12 6 0 8 -4 5 -9 -4 -5 5
-22 18 -38 13 -15 24 -32 24 -38 0 -5 8 -14 18 -20 10 -5 27 -18 38 -27 11
-10 25 -18 30 -18 6 -1 0 -7 -14 -15 -24 -14 -24 -14 -3 -15 44 0 34 23 -37
91 -40 38 -70 72 -67 75 7 7 57 -26 107 -70 l35 -31 -30 33 c-32 35 -114 92
-133 92 -7 0 -12 -8 -11 -17z"/>
<path d="M5292 5270 c0 -14 2 -19 5 -12 2 6 2 18 0 25 -3 6 -5 1 -5 -13z"/>
<path d="M861 5224 c-12 -15 -21 -38 -21 -51 0 -14 -4 -21 -10 -18 -6 3 -1
-10 11 -29 14 -24 26 -33 37 -30 13 4 12 2 -2 -7 -14 -9 -24 -9 -37 -1 -14 9
-16 8 -12 -7 3 -12 11 -17 22 -14 10 2 31 -7 48 -21 33 -27 58 -32 83 -16 11
8 9 9 -11 5 -31 -8 -71 22 -75 56 -9 66 -17 105 -26 115 -6 8 -4 11 4 10 7 0
14 3 15 8 1 5 7 13 15 17 10 7 9 9 -4 9 -9 0 -26 -12 -37 -26z m-4 -71 c-3
-10 -5 -2 -5 17 0 19 2 27 5 18 2 -10 2 -26 0 -35z"/>
<path d="M960 5236 c0 -2 8 -10 18 -17 15 -13 16 -12 3 4 -13 16 -21 21 -21
13z"/>
<path d="M5291 5214 c0 -11 3 -14 6 -6 3 7 2 16 -1 19 -3 4 -6 -2 -5 -13z"/>
<path d="M5920 5220 c0 -5 7 -10 15 -10 8 0 15 5 15 10 0 6 -7 10 -15 10 -8 0
-15 -4 -15 -10z"/>
<path d="M5836 5194 c-4 -14 -5 -28 -3 -31 3 -2 8 8 11 23 4 14 5 28 3 31 -3
2 -8 -8 -11 -23z"/>
<path d="M5897 5203 c-4 -10 -18 -34 -33 -53 -25 -32 -24 -32 7 3 26 29 39 37
53 31 18 -7 18 -6 0 14 -22 26 -20 26 -27 5z"/>
<path d="M670 5202 c0 -6 14 -27 30 -46 l31 -35 -33 -4 c-24 -3 -19 -4 17 -5
39 -1 46 1 32 9 -10 6 -31 29 -47 51 -17 23 -30 36 -30 30z"/>
<path d="M5568 5203 c6 -2 18 -2 25 0 6 3 1 5 -13 5 -14 0 -19 -2 -12 -5z"/>
<path d="M5321 5192 c0 -7 -5 -10 -11 -7 -20 12 -9 -20 16 -50 15 -16 23 -23
18 -15 -4 8 -11 30 -15 50 -4 19 -7 29 -8 22z"/>
<path d="M5529 5183 c-13 -16 -12 -17 4 -4 9 7 17 15 17 17 0 8 -8 3 -21 -13z"/>
<path d="M5611 5198 c2 -2 20 -16 39 -33 l35 -30 -29 33 c-17 17 -34 32 -40
32 -5 0 -7 -1 -5 -2z"/>
<path d="M1250 5182 c0 -4 5 -13 10 -18 16 -16 16 -85 1 -123 -10 -23 -16 -29
-22 -19 -7 10 -9 9 -9 -4 0 -9 -3 -25 -6 -35 -6 -16 -5 -16 10 2 15 19 16 19
6 -9 -14 -37 -10 -40 21 -13 14 12 19 18 12 13 -23 -15 -23 -2 -3 57 17 48 18
64 9 107 -6 27 -15 50 -20 50 -5 0 -9 -4 -9 -8z"/>
<path d="M5641 5128 c9 -7 14 -19 11 -27 -3 -8 0 -11 7 -7 17 11 13 24 -11 36
-20 9 -21 9 -7 -2z"/>
<path d="M1029 5100 c-4 -34 -5 -35 -44 -34 -22 1 -51 5 -64 9 -18 6 -22 5
-17 -4 12 -19 58 -33 70 -21 7 7 19 2 38 -17 15 -15 28 -24 28 -20 0 4 9 -2
20 -13 11 -11 27 -20 35 -20 8 0 15 -5 15 -11 0 -5 5 -7 10 -4 6 3 10 14 9 23
0 11 -2 13 -6 4 -4 -10 -11 -9 -31 4 -52 32 -73 56 -61 70 6 7 9 25 7 41 -4
26 -4 26 -9 -7z m-4 -60 c10 -11 16 -20 13 -20 -3 0 -13 9 -23 20 -10 11 -16
20 -13 20 3 0 13 -9 23 -20z"/>
<path d="M5302 5080 c0 -30 2 -49 5 -42 4 10 9 9 20 -5 13 -15 13 -14 0 8 -9
14 -17 41 -20 60 -2 22 -4 15 -5 -21z"/>
<path d="M5502 5110 c0 -14 2 -19 5 -12 2 6 2 18 0 25 -3 6 -5 1 -5 -13z"/>
<path d="M6054 5114 c-18 -14 -18 -14 6 -3 31 14 36 19 24 19 -6 0 -19 -7 -30
-16z"/>
<path d="M1252 5100 c0 -14 2 -19 5 -12 2 6 2 18 0 25 -3 6 -5 1 -5 -13z"/>
<path d="M581 5099 c-53 -16 -31 -19 29 -4 30 7 44 13 30 13 -14 0 -40 -4 -59
-9z"/>
<path d="M5691 5094 c0 -11 3 -14 6 -6 3 7 2 16 -1 19 -3 4 -6 -2 -5 -13z"/>
<path d="M650 5079 c0 -5 -6 -7 -12 -3 -10 5 -10 3 0 -7 9 -9 15 -10 20 -3 4
6 30 10 57 9 28 -1 59 2 70 6 12 5 -10 8 -57 8 -49 1 -78 -3 -78 -10z"/>
<path d="M515 5070 c-3 -5 1 -10 9 -10 9 0 16 5 16 10 0 6 -4 10 -9 10 -6 0
-13 -4 -16 -10z"/>
<path d="M5510 5064 c0 -17 38 -62 63 -75 15 -7 11 -2 -10 17 -17 16 -36 38
-42 49 -6 11 -11 15 -11 9z"/>
<path d="M568 5053 c7 -3 16 -2 19 1 4 3 -2 6 -13 5 -11 0 -14 -3 -6 -6z"/>
<path d="M1100 5036 c0 -31 6 -34 13 -6 3 11 1 23 -4 26 -5 3 -9 -6 -9 -20z"/>
<path d="M5939 5024 c-18 -20 -47 -45 -64 -56 -16 -11 -22 -17 -12 -14 19 6
177 46 183 46 2 0 9 10 15 23 12 22 12 22 -9 4 -11 -11 -25 -16 -31 -13 -5 4
-12 2 -15 -3 -3 -4 -18 -11 -33 -14 -16 -3 -37 -9 -48 -13 -14 -5 -7 6 20 35
21 22 37 41 34 41 -3 0 -21 -16 -40 -36z"/>
<path d="M608 5043 c7 -3 16 -2 19 1 4 3 -2 6 -13 5 -11 0 -14 -3 -6 -6z"/>
<path d="M788 5043 c12 -2 30 -2 40 0 9 3 -1 5 -23 4 -22 0 -30 -2 -17 -4z"/>
<path d="M658 5033 c12 -2 30 -2 40 0 9 3 -1 5 -23 4 -22 0 -30 -2 -17 -4z"/>
<path d="M709 5017 c-70 -47 -59 -111 28 -149 34 -15 56 -18 88 -13 49 7 95
38 94 63 0 11 -2 12 -6 4 -2 -7 -14 -17 -25 -23 -13 -7 -18 -7 -14 -1 4 6 -2
10 -14 9 -11 -1 -20 -4 -20 -7 0 -10 -78 -2 -101 10 -12 7 -19 8 -16 3 4 -5 0
-10 -7 -10 -9 0 -12 7 -8 15 4 11 1 14 -11 9 -14 -5 -16 -3 -8 12 7 12 7 21
-1 29 -14 14 -3 29 40 52 20 10 32 19 26 20 -6 0 -26 -10 -45 -23z"/>
<path d="M851 5038 c2 -2 18 -14 34 -28 l30 -25 -24 28 c-14 15 -29 27 -34 27
-6 0 -8 -1 -6 -2z"/>
<path d="M6183 5033 c29 -5 33 -12 17 -31 -5 -7 -3 -6 6 2 22 19 9 36 -24 35
l-27 -2 28 -4z"/>
<path d="M5449 4968 c29 -38 55 -68 58 -68 4 0 -1 8 -10 18 -10 10 -17 27 -17
37 0 10 -3 15 -7 12 -9 -9 -32 24 -33 48 -1 12 -4 15 -7 7 -4 -10 -8 -10 -21
0 -9 7 8 -17 37 -54z"/>
<path d="M6118 5023 c7 -3 16 -2 19 1 4 3 -2 6 -13 5 -11 0 -14 -3 -6 -6z"/>
<path d="M1181 5004 c0 -11 3 -14 6 -6 3 7 2 16 -1 19 -3 4 -6 -2 -5 -13z"/>
<path d="M5645 5010 c-3 -5 -1 -10 4 -10 6 0 10 -3 9 -7 0 -5 2 -16 7 -26 4
-10 5 -57 3 -104 -3 -57 -2 -78 4 -62 5 13 8 60 7 104 -2 44 1 87 6 95 4 8 5
12 0 8 -4 -4 -14 -3 -21 3 -8 7 -14 7 -19 -1z"/>
<path d="M6078 5013 c7 -3 16 -2 19 1 4 3 -2 6 -13 5 -11 0 -14 -3 -6 -6z"/>
<path d="M6130 4990 c-8 -5 -10 -10 -5 -10 6 0 17 5 25 10 8 5 11 10 5 10 -5
0 -17 -5 -25 -10z"/>
<path d="M907 4966 c-7 -18 -5 -19 78 -20 33 -1 71 -5 85 -9 22 -7 23 -6 6 4
-10 6 -48 14 -85 17 -36 3 -69 9 -72 14 -3 5 -9 3 -12 -6z"/>
<path d="M5360 4976 c0 -2 8 -10 18 -17 15 -13 16 -12 3 4 -13 16 -21 21 -21
13z"/>
<path d="M5608 4973 c6 -2 18 -2 25 0 6 3 1 5 -13 5 -14 0 -19 -2 -12 -5z"/>
<path d="M6130 4938 c-19 -16 -26 -25 -15 -19 31 16 71 51 60 50 -5 0 -26 -14
-45 -31z"/>
<path d="M5918 4933 c6 -2 18 -2 25 0 6 3 1 5 -13 5 -14 0 -19 -2 -12 -5z"/>
<path d="M5868 4923 c7 -3 16 -2 19 1 4 3 -2 6 -13 5 -11 0 -14 -3 -6 -6z"/>
<path d="M1180 4895 c-7 -9 -8 -15 -2 -15 5 0 12 7 16 15 3 8 4 15 2 15 -2 0
-9 -7 -16 -15z"/>
<path d="M5370 4909 c0 -3 9 -16 20 -29 11 -13 20 -32 20 -44 0 -15 3 -17 9
-8 6 11 14 8 35 -14 21 -24 26 -39 28 -89 2 -57 2 -58 5 -12 3 30 8 45 15 41
7 -4 7 -1 0 12 -12 23 -131 152 -132 143z"/>
<path d="M6048 4893 c7 -3 16 -2 19 1 4 3 -2 6 -13 5 -11 0 -14 -3 -6 -6z"/>
<path d="M968 4883 c12 -2 30 -2 40 0 9 3 -1 5 -23 4 -22 0 -30 -2 -17 -4z"/>
<path d="M5960 4882 c0 -15 13 -22 24 -13 6 5 20 11 31 14 12 3 4 5 -17 6 -21
0 -38 -3 -38 -7z"/>
<path d="M5794 4848 l-29 -33 31 28 c17 15 34 24 39 20 4 -5 5 -2 1 5 -9 16
-8 17 -42 -20z"/>
<path d="M1063 4853 c-10 -10 -17 -17 -14 -16 2 2 10 -2 18 -9 8 -6 13 -7 12
-2 -4 21 2 33 19 37 14 4 15 5 1 6 -9 0 -25 -7 -36 -16z"/>
<path d="M5221 4854 c0 -11 3 -14 6 -6 3 7 2 16 -1 19 -3 4 -6 -2 -5 -13z"/>
<path d="M5372 4850 c0 -14 2 -19 5 -12 2 6 2 18 0 25 -3 6 -5 1 -5 -13z"/>
<path d="M879 4833 l-24 -28 28 24 c25 23 32 31 24 31 -2 0 -14 -12 -28 -27z"/>
<path d="M5920 4809 l-45 -41 42 32 c37 27 61 51 51 50 -2 0 -23 -19 -48 -41z"/>
<path d="M5520 4800 c6 -11 13 -20 16 -20 2 0 0 9 -6 20 -6 11 -13 20 -16 20
-2 0 0 -9 6 -20z"/>
<path d="M5231 4794 c0 -11 3 -14 6 -6 3 7 2 16 -1 19 -3 4 -6 -2 -5 -13z"/>
<path d="M5561 4794 c0 -11 3 -14 6 -6 3 7 2 16 -1 19 -3 4 -6 -2 -5 -13z"/>
<path d="M5749 4793 c-13 -16 -12 -17 4 -4 16 13 21 21 13 21 -2 0 -10 -8 -17
-17z"/>
<path d="M1065 4770 c-4 -11 -23 -32 -44 -46 -65 -43 -171 -23 -171 33 0 9 -3
13 -6 10 -4 -4 -1 -20 6 -36 29 -71 164 -55 216 24 9 14 14 28 11 31 -3 3 -8
-4 -12 -16z"/>
<path d="M1170 4783 c0 -6 8 -17 18 -24 16 -13 16 -13 2 6 -8 11 -16 22 -17
24 -2 2 -3 0 -3 -6z"/>
<path d="M5201 4774 c0 -11 3 -14 6 -6 3 7 2 16 -1 19 -3 4 -6 -2 -5 -13z"/>
<path d="M1013 4756 c-32 -27 -100 -40 -121 -23 -7 5 -15 7 -19 3 -11 -10 2
-17 49 -22 47 -6 92 9 118 41 22 26 4 27 -27 1z"/>
<path d="M1100 4748 c-11 -18 -20 -37 -20 -42 0 -12 1 -10 28 37 26 45 19 50
-8 5z"/>
<path d="M1147 4773 c-4 -3 -7 -17 -7 -29 0 -13 -10 -33 -22 -45 -13 -12 -17
-19 -10 -15 16 9 15 1 -4 -36 -9 -16 -11 -27 -6 -24 13 8 67 144 60 151 -2 3
-8 2 -11 -2z"/>
<path d="M5363 4720 c0 -36 2 -50 4 -32 2 17 2 47 0 65 -2 17 -4 3 -4 -33z"/>
<path d="M5241 4754 c0 -11 3 -14 6 -6 3 7 2 16 -1 19 -3 4 -6 -2 -5 -13z"/>
<path d="M5844 4754 c-18 -14 -18 -15 4 -4 12 6 22 13 22 15 0 8 -5 6 -26 -11z"/>
<path d="M5162 4720 c0 -14 2 -19 5 -12 2 6 2 18 0 25 -3 6 -5 1 -5 -13z"/>
<path d="M1170 4723 c0 -4 5 -15 10 -23 8 -13 10 -13 10 2 0 9 -4 20 -10 23
-5 3 -10 3 -10 -2z"/>
<path d="M1212 4690 c0 -19 2 -27 5 -17 2 9 2 25 0 35 -3 9 -5 1 -5 -18z"/>
<path d="M1137 4644 c-37 -74 -33 -83 4 -10 17 32 29 60 27 62 -2 2 -16 -21
-31 -52z"/>
<path d="M1072 4665 c0 -16 2 -22 5 -12 2 9 2 23 0 30 -3 6 -5 -1 -5 -18z"/>
<path d="M1191 4644 c6 -21 13 -41 16 -44 9 -9 -9 65 -18 74 -4 5 -3 -8 2 -30z"/>
<path d="M5271 4654 c0 -11 3 -14 6 -6 3 7 2 16 -1 19 -3 4 -6 -2 -5 -13z"/>
<path d="M1160 4646 c0 -11 30 -66 36 -66 2 0 -3 15 -12 33 -19 36 -24 44 -24
33z"/>
<path d="M5211 4624 c0 -11 3 -14 6 -6 3 7 2 16 -1 19 -3 4 -6 -2 -5 -13z"/>
<path d="M5472 4620 c0 -14 2 -19 5 -12 2 6 2 18 0 25 -3 6 -5 1 -5 -13z"/>
<path d="M5281 4614 c0 -11 3 -14 6 -6 3 7 2 16 -1 19 -3 4 -6 -2 -5 -13z"/>
<path d="M5372 4610 c0 -14 2 -19 5 -12 2 6 2 18 0 25 -3 6 -5 1 -5 -13z"/>
<path d="M1072 4600 c0 -14 2 -19 5 -12 2 6 2 18 0 25 -3 6 -5 1 -5 -13z"/>
<path d="M5162 4580 c0 -14 2 -19 5 -12 2 6 2 18 0 25 -3 6 -5 1 -5 -13z"/>
<path d="M5292 4560 c0 -14 2 -19 5 -12 2 6 2 18 0 25 -3 6 -5 1 -5 -13z"/>
<path d="M1081 4560 c0 -8 4 -22 9 -30 12 -18 12 -2 0 25 -6 13 -9 15 -9 5z"/>
<path d="M5382 4545 c0 -16 2 -22 5 -12 2 9 2 23 0 30 -3 6 -5 -1 -5 -18z"/>
<path d="M5938 4553 c6 -2 18 -2 25 0 6 3 1 5 -13 5 -14 0 -19 -2 -12 -5z"/>
<path d="M5825 4510 c-3 -6 1 -7 9 -4 18 7 21 14 7 14 -6 0 -13 -4 -16 -10z"/>
<path d="M5787 4494 c-3 -4 -21 -10 -39 -14 l-33 -8 30 -1 c29 -2 29 -2 10
-18 l-20 -16 20 8 c11 4 43 11 70 15 l50 8 -42 1 c-41 1 -57 14 -30 24 6 3 7
6 1 6 -6 1 -13 -2 -17 -5z"/>
<path d="M5558 4483 c23 -2 59 -2 80 0 20 2 1 4 -43 4 -44 0 -61 -2 -37 -4z"/>
<path d="M5890 4480 c-9 -6 -10 -10 -3 -10 6 0 15 5 18 10 8 12 4 12 -15 0z"/>
<path d="M5191 4464 c0 -11 3 -14 6 -6 3 7 2 16 -1 19 -3 4 -6 -2 -5 -13z"/>
<path d="M5292 4460 c0 -14 2 -19 5 -12 2 6 2 18 0 25 -3 6 -5 1 -5 -13z"/>
<path d="M5463 4443 c9 -2 25 -2 35 0 9 3 1 5 -18 5 -19 0 -27 -2 -17 -5z"/>
<path d="M5202 4420 c0 -14 2 -19 5 -12 2 6 2 18 0 25 -3 6 -5 1 -5 -13z"/>
<path d="M5670 4430 c25 -4 49 -4 55 1 5 5 -13 8 -45 8 l-55 -2 45 -7z"/>
<path d="M5281 4414 c0 -11 3 -14 6 -6 3 7 2 16 -1 19 -3 4 -6 -2 -5 -13z"/>
<path d="M5640 4410 c-13 -9 -13 -10 0 -9 8 0 24 4 35 9 l20 9 -20 0 c-11 0
-27 -4 -35 -9z"/>
<path d="M5488 4403 c7 -3 16 -2 19 1 4 3 -2 6 -13 5 -11 0 -14 -3 -6 -6z"/>
<path d="M5538 4393 c12 -2 30 -2 40 0 9 3 -1 5 -23 4 -22 0 -30 -2 -17 -4z"/>
<path d="M1310 3214 c0 -13 8 -16 80 -29 19 -3 132 -23 250 -45 118 -21 454
-82 745 -135 292 -53 574 -105 628 -116 54 -10 109 -19 122 -19 25 0 38 19 26
39 -5 7 -359 70 -907 161 -494 82 -909 151 -921 153 -15 3 -23 -1 -23 -9z"/>
<path d="M747 3214 c-12 -12 -8 -42 6 -47 21 -8 39 8 35 29 -3 19 -29 30 -41
18z"/>
<path d="M988 3064 c-32 -17 -44 -53 -28 -83 15 -30 70 -28 98 2 27 29 28 51
2 77 -24 24 -36 24 -72 4z"/>
<path d="M503 3003 c-17 -6 -17 -40 0 -46 20 -8 39 8 35 28 -3 20 -16 26 -35
18z"/>
<path d="M1385 2980 c-4 -6 -5 -13 -4 -15 13 -12 1213 -220 1639 -284 118 -17
137 -18 150 -5 30 29 -11 41 -330 93 -551 89 -1135 179 -1310 201 -47 6 -97
13 -112 16 -14 3 -29 0 -33 -6z"/>
<path d="M303 2674 c-3 -8 -1 -20 5 -26 16 -16 42 -2 42 22 0 24 -38 28 -47 4z"/>
<path d="M5685 1441 c-147 -87 -190 -123 -183 -154 2 -12 39 5 161 74 155 89
181 112 175 149 -3 16 -25 5 -153 -69z"/>
<path d="M5801 1240 c-23 -33 -60 -74 -82 -92 l-39 -31 25 -24 c46 -46 49 -77
50 -403 l0 -305 -52 -3 -53 -3 0 -60 0 -59 105 0 105 0 0 520 c0 286 -4 520
-9 520 -4 0 -27 -27 -50 -60z"/>
<path d="M3671 1244 c-26 -19 -71 -107 -71 -142 0 -29 25 -78 47 -90 14 -8 12
-14 -18 -41 -19 -17 -67 -54 -107 -81 l-72 -49 33 -6 c48 -9 98 15 167 81 l59
56 34 -21 c19 -12 37 -21 41 -21 13 0 6 94 -9 110 -14 15 -14 23 0 75 16 61
12 99 -13 128 -19 21 -60 22 -91 1z m39 -93 c5 -11 10 -31 10 -46 0 -25 0 -25
-25 -9 -30 19 -49 50 -40 64 10 17 44 11 55 -9z"/>
<path d="M3257 1121 c-174 -212 -532 -483 -759 -576 -62 -25 -84 -39 -86 -55
l-3 -20 748 0 c569 0 752 -3 761 -12 18 -18 14 -56 -7 -68 -13 -7 -283 -10
-805 -10 l-786 0 0 -60 0 -60 860 0 860 0 0 99 c0 55 -5 112 -11 128 -11 31
-53 78 -84 96 -14 9 -178 13 -568 17 l-548 5 53 40 c79 60 252 230 319 312 62
78 98 135 124 196 25 60 -3 47 -68 -32z"/>
<path d="M4797 1072 c-36 -39 -7 -102 45 -102 24 0 58 35 58 60 0 27 -35 60
-63 60 -13 0 -31 -8 -40 -18z"/>
<path d="M4662 1024 c-43 -30 -17 -104 36 -104 25 0 62 33 62 54 0 21 -40 66
-59 66 -9 0 -27 -7 -39 -16z"/>
<path d="M2129 936 c-27 -13 -36 -54 -19 -86 17 -31 75 -28 97 6 15 23 15 29
2 52 -18 32 -50 44 -80 28z"/>
<path d="M4903 903 c-15 -21 -52 -62 -82 -92 -45 -45 -51 -55 -37 -63 20 -11
46 -60 46 -88 0 -16 -7 -20 -37 -20 -47 -1 -107 -22 -135 -47 -46 -42 -58 -85
-58 -213 l0 -120 235 0 235 0 0 60 0 60 -60 0 -60 0 0 280 c0 172 -4 280 -10
280 -5 0 -22 -17 -37 -37z m-81 -410 c40 -36 8 -113 -47 -113 -54 0 -85 71
-48 112 20 22 70 23 95 1z"/>
<path d="M1972 878 c-24 -31 -23 -57 2 -83 29 -29 43 -31 74 -9 25 17 31 71
10 92 -16 16 -73 15 -86 0z"/>
<path d="M5317 808 c-27 -22 -31 -61 -7 -91 39 -49 113 -24 113 38 0 53 -64
84 -106 53z"/>
<path d="M1683 706 c-27 -35 -65 -75 -85 -90 l-38 -27 29 -25 c30 -25 51 -89
51 -154 l0 -30 -342 0 c-199 0 -362 5 -388 11 -29 6 -59 23 -83 47 l-39 37
-16 -25 c-34 -50 -91 -106 -146 -140 -30 -19 -55 -38 -56 -42 0 -5 288 -8 640
-8 l640 0 0 60 0 60 -50 0 -50 0 0 195 c0 120 -4 195 -10 195 -5 0 -31 -29
-57 -64z"/>
<path d="M2153 733 c-15 -21 -53 -63 -84 -94 -52 -51 -55 -57 -38 -67 28 -18
47 -62 55 -130 l7 -62 -112 0 -111 0 0 -60 0 -60 215 0 215 0 0 60 0 60 -50 0
-50 0 0 195 c0 118 -4 195 -10 195 -5 0 -22 -17 -37 -37z"/>
<path d="M5317 626 c-21 -8 -47 -22 -57 -31 -35 -32 -60 -98 -60 -158 l0 -57
-55 0 -55 0 0 -60 0 -60 270 0 270 0 0 60 0 60 -45 0 -45 0 6 38 c21 134 -109
252 -229 208z m105 -133 c25 -22 23 -68 -4 -93 -26 -24 -56 -26 -86 -4 -26 18
-30 74 -6 98 20 21 73 20 96 -1z"/>
<path d="M1270 130 c-40 -40 -11 -110 45 -110 55 0 87 77 47 113 -25 23 -68
21 -92 -3z"/>
</g>
</svg>
